<svg width="105" height="212" viewBox="0 0 105 212" fill="none" xmlns="http://www.w3.org/2000/svg">
<g clip-path="url(#clip0_828_16330)">
<path fill-rule="evenodd" clip-rule="evenodd" d="M98.1 112.6H97.9L98.1 168.8H98.2L98.1 112.6Z" fill="#FED700"/>
<path d="M98.1 112.6H97.9L98.1 168.8H98.2L98.1 112.6Z" fill="#FED700" stroke="#FED700" stroke-width="4" stroke-miterlimit="100"/>
<rect x="96" y="115" width="4.2" height="39" fill="#FED700"/>
<path fill-rule="evenodd" clip-rule="evenodd" d="M97.7 156.4C94.6 156.4 92 158.9 92 162.1V205.6C92 208.7 94.5 211.3 97.7 211.3C100.9 211.3 103.4 208.8 103.4 205.6V162.1C103.4 159 100.9 156.4 97.7 156.4Z" fill="#FED700"/>
<path d="M97.7 156.4C94.6 156.4 92 158.9 92 162.1V205.6C92 208.7 94.5 211.3 97.7 211.3C100.9 211.3 103.4 208.8 103.4 205.6V162.1C103.4 159 100.9 156.4 97.7 156.4Z" fill="#FED700"/>
<path d="M97.6998 153C98.9475 153 99.9996 154 99.9996 155.2C99.9995 156.401 98.9475 157.4 97.6998 157.4C96.4523 157.4 95.4001 156.401 95.4 155.2C95.4 153.988 96.3641 153 97.6998 153Z" fill="#FED700" stroke="black"/>
<path d="M97.6998 153C98.9475 153 99.9996 154 99.9996 155.2C99.9995 156.401 98.9475 157.4 97.6998 157.4C96.4523 157.4 95.4001 156.401 95.4 155.2C95.4 153.988 96.3641 153 97.6998 153Z" fill="#FED700" stroke="black"/>
<path d="M21.6 30C19.8 30 18.2 29.7 16.8 29C15.4 28.3 14.3 27.1999 13.6 25.7999C12.9 24.3999 12.4 22.5 12.4 20.4V8.19995H18.6V19.4C18.6 21.2 19 22.5 19.7 23.4C20.5 24.2 21.5 24.7 22.9 24.7C24.3 24.7 24.7 24.5 25.5 24.1C26.2 23.7 26.8 23 27.3 22.2C27.7 21.3 28 20.3 28 19V8.29995H34.2V29.7999H28.3V23.8L29.4 25.6C28.7 27.1 27.6 28.2 26.2 29C24.8 29.8 23.3 30.1 21.6 30.1V30Z" fill="#FED700"/>
<path d="M38 29.7001V8.20005H44V14.3L43.2 12.5C43.8 11 44.9 9.80005 46.3 9.00005C47.7 8.20005 49.4 7.80005 51.5 7.80005V13.6C51.3 13.6 51 13.6 50.8 13.5C50.6 13.5 50.4 13.5 50.1 13.5C48.3 13.5 46.9 14 45.9 15C44.9 16 44.3 17.5 44.3 19.6V29.8H38.1L38 29.7001Z" fill="#FED700"/>
<path d="M66.2 7.9C67.9 7.9 69.4001 8.2 70.8001 8.9C72.1001 9.6 73.2 10.6 74 12C74.8 13.4 75.2 15.2 75.2 17.4V29.7H69V18.3C69 16.6 68.6001 15.3 67.9001 14.5C67.1001 13.7 66.1 13.3 64.7 13.3C63.3 13.3 62.8 13.5 62 13.9C61.2 14.3 60.6001 15 60.2001 15.8C59.8001 16.6 59.5 17.7 59.5 19.1V29.7H53.3V0H59.5V14.1L58.1 12.3C58.9 10.9 60.0001 9.8 61.4001 9C62.8001 8.2 64.5001 7.8 66.3001 7.8L66.2 7.9Z" fill="#FED700"/>
<path d="M89.1 30C86.8 30 84.8 29.5 83 28.6C81.2 27.7 79.8 26.3 78.8 24.7C77.8 23 77.3 21.1 77.3 19C77.3 16.9 77.8 14.9 78.8 13.3C79.8 11.6 81.2 10.3 83 9.4C84.8 8.5 86.8 8 89.1 8C91.4 8 93.4 8.5 95.2 9.4C97 10.3 98.4 11.7 99.4 13.3C100.4 15 100.9 16.9 100.9 19C100.9 21.1 100.4 23.1 99.4 24.7C98.4 26.4 97 27.7 95.2 28.6C93.4 29.6 91.4 30 89.1 30ZM89.1 24.9C90.2 24.9 91.1 24.7 91.9 24.2C92.7 23.7 93.4 23 93.9 22.1C94.4 21.2 94.6 20.1 94.6 18.9C94.6 17.7 94.4 16.6 93.9 15.7C93.4 14.8 92.8 14.1 91.9 13.7C91.1 13.2 90.2 13 89.1 13C88 13 87.1 13.2 86.3 13.7C85.5 14.2 84.8 14.8 84.3 15.7C83.8 16.6 83.6 17.6 83.6 18.9C83.6 20.2 83.8 21.2 84.3 22.1C84.8 23 85.5 23.7 86.3 24.2C87.1 24.7 88 24.9 89.1 24.9Z" fill="#FED700"/>
<path d="M27.6 55.8999C29.3 55.8999 30.8 56.1999 32.1 56.8999C33.4 57.5999 34.5 58.5999 35.2 59.9999C35.9 61.3999 36.3 63.1999 36.3 65.3999V77.6999H30.1V66.2999C30.1 64.5999 29.7 63.2999 29 62.4999C28.3 61.6999 27.3 61.2999 26 61.2999C24.7 61.2999 24.2 61.4999 23.5 61.8999C22.8 62.2999 22.2 62.8999 21.8 63.6999C21.4 64.4999 21.2 65.5999 21.2 66.8999V77.6999H15V66.2999C15 64.5999 14.6 63.2999 13.9 62.4999C13.2 61.6999 12.2 61.2999 10.8 61.2999C9.4 61.2999 9.1 61.4999 8.4 61.8999C7.7 62.2999 7.1 62.8999 6.7 63.6999C6.3 64.4999 6.1 65.5999 6.1 66.8999V77.6999H0V56.1999H6V61.9999L4.9 60.2999C5.6 58.7999 6.7 57.6999 8.1 56.9999C9.5 56.1999 11 55.8999 12.8 55.8999C14.6 55.8999 16.5 56.3999 18 57.3999C19.5 58.3999 20.5 59.8999 21 61.9999L18.8 61.3999C19.5 59.6999 20.7 58.3999 22.2 57.3999C23.8 56.3999 25.6 55.8999 27.7 55.8999H27.6Z" fill="#FED700"/>
<path d="M46.7001 77.9999C45.0001 77.9999 43.6001 77.6999 42.4001 77.0999C41.2001 76.4999 40.3001 75.6999 39.6001 74.7999C38.9001 73.7999 38.6001 72.6999 38.6001 71.4999C38.6001 70.2999 38.9001 69.0999 39.5001 68.1999C40.1001 67.1999 41.1001 66.4999 42.5001 65.8999C43.9001 65.3999 45.6001 65.0999 47.9001 65.0999H53.6001V68.6999H48.6001C47.1001 68.6999 46.1001 68.8999 45.6001 69.3999C45.1001 69.8999 44.8001 70.4999 44.8001 71.1999C44.8001 71.8999 45.1001 72.5999 45.7001 73.0999C46.3001 73.5999 47.2001 73.7999 48.2001 73.7999C49.2001 73.7999 50.2001 73.5999 51.1001 73.0999C51.9001 72.5999 52.5001 71.8999 52.9001 70.8999L53.9001 73.7999C53.4001 75.0999 52.6001 76.1999 51.4001 76.8999C50.2001 77.5999 48.7001 77.9999 46.8001 77.9999H46.7001ZM53.2001 77.6999V73.4999L52.8001 72.5999V65.0999C52.8001 63.7999 52.4001 62.6999 51.6001 61.9999C50.8001 61.2999 49.5001 60.8999 47.9001 60.8999C46.3001 60.8999 45.6001 61.0999 44.5001 61.3999C43.4001 61.7999 42.4001 62.1999 41.6001 62.8999L39.4001 58.4999C40.6001 57.5999 42.0001 56.9999 43.6001 56.5999C45.3001 56.1999 46.9001 55.8999 48.6001 55.8999C51.9001 55.8999 54.4001 56.6999 56.2001 58.1999C58.0001 59.6999 58.9001 62.1999 58.9001 65.3999V77.6999H53.1001H53.2001Z" fill="#FED700"/>
<path d="M60.2001 61.4999V56.6999H75.1001V61.4999H60.2001ZM71.5001 77.9999C69.0001 77.9999 67.0001 77.3999 65.6001 76.0999C64.2001 74.7999 63.5001 72.8999 63.5001 70.2999V51.3999H69.8001V70.1999C69.8001 71.0999 70.0001 71.7999 70.5001 72.2999C71.0001 72.7999 71.6001 73.0999 72.4001 73.0999C73.2001 73.0999 74.3001 72.7999 75.0001 72.2999L76.6001 76.6999C76.0001 77.1999 75.2001 77.4999 74.3001 77.6999C73.4001 77.8999 72.5001 77.9999 71.5001 77.9999Z" fill="#FED700"/>
<path d="M75.1001 61.4999V56.6999H90.0001V61.4999H75.1001ZM86.4001 77.9999C83.9001 77.9999 81.9001 77.3999 80.5001 76.0999C79.1001 74.7999 78.4001 72.8999 78.4001 70.2999V51.3999H84.7001V70.1999C84.7001 71.0999 84.9001 71.7999 85.4001 72.2999C85.9001 72.7999 86.5001 73.0999 87.3001 73.0999C88.1001 73.0999 89.2001 72.7999 89.9001 72.2999L91.5001 76.6999C90.9001 77.1999 90.1001 77.4999 89.2001 77.6999C88.3001 77.8999 87.4001 77.9999 86.4001 77.9999Z" fill="#FED700"/>
<path d="M96.2 53.2C95 53.2 94.1 52.9 93.4 52.2C92.7 51.5 92.3 50.7 92.3 49.7C92.3 48.7 92.7 47.9 93.4 47.2C94.1 46.5 95.1 46.2 96.2 46.2C97.3 46.2 98.3 46.4999 99 47.0999C99.7 47.6999 100.1 48.5 100.1 49.5C100.1 50.5 99.7 51.3999 99 52.0999C98.3 52.7999 97.3 53.0999 96.2 53.0999V53.2ZM93 77.6999V56.2H99.2V77.6999H93Z" fill="#FED700"/>
<path d="M42 119.8V115.4L55.2 97.6001H62L49.1 115.4L45.9 114.5H67.9V119.8H41.9H42ZM57 125.7V119.8L57.2 114.5V109.3H63.3V125.7H57Z" fill="#FED700"/>
<path d="M72.3 126C71.2 126 70.3 125.6 69.6 124.9C68.8 124.2 68.5 123.2 68.5 122.1C68.5 121 68.9 120 69.6 119.3C70.4 118.6 71.3 118.2 72.3 118.2C73.3 118.2 74.3 118.6 75.1 119.3C75.8 120 76.2 121 76.2 122.1C76.2 123.2 75.8 124.1 75.1 124.9C74.4 125.6 73.4 126 72.3 126Z" fill="#FED700"/>
<path d="M88.6001 96.7C90.9893 96.7 93.1802 97.324 95.061 98.4734C96.9601 99.634 98.4153 101.414 99.5435 103.568C100.694 105.765 101.2 108.554 101.2 111.7C101.2 114.852 100.692 117.535 99.5474 119.824C98.4129 122.093 96.9539 123.77 95.061 124.927C93.1802 126.076 90.9893 126.7 88.6001 126.7C86.2065 126.7 84.1168 126.074 82.2397 124.927C80.3406 123.766 78.8855 121.986 77.7573 119.832C76.6067 117.635 76.1001 114.846 76.1001 111.7C76.1001 108.548 76.608 105.865 77.7524 103.576L77.7573 103.568C78.8855 101.414 80.3406 99.634 82.2397 98.4734C84.1168 97.3264 86.2065 96.7 88.6001 96.7ZM88.6001 103.3C87.6025 103.3 86.809 103.569 86.1001 104.1C85.3969 104.628 84.7444 105.538 84.2671 106.779C83.8007 107.992 83.6001 109.718 83.6001 111.8C83.6001 113.868 83.7977 115.5 84.2671 116.82L84.4526 117.278C84.864 118.23 85.3309 118.929 85.9351 119.384L86.0776 119.484L86.0894 119.492L86.1001 119.5C86.8048 120.028 87.6969 120.3 88.6001 120.3C89.5866 120.3 90.3864 120.036 91.2056 119.494C91.9051 118.967 92.5492 118.066 92.9224 116.853L92.9272 116.837L92.9331 116.82C93.3995 115.607 93.6001 113.881 93.6001 111.8C93.6001 109.731 93.4026 108.1 92.9331 106.779C92.4451 105.51 91.8874 104.616 91.1997 104.1C90.4989 103.575 89.6088 103.3 88.6001 103.3Z" fill="#FED700" stroke="black"/>
</g>
<defs>
<clipPath id="clip0_828_16330">
<rect width="104.2" height="211.9" fill="white"/>
</clipPath>
</defs>
</svg>
