<?xml version="1.0" encoding="UTF-8"?>
<svg xmlns="http://www.w3.org/2000/svg" version="1.1" viewBox="0 0 104.2 211.9">
  <!-- Generator: Adobe Illustrator 29.8.1, SVG Export Plug-In . SVG Version: 2.1.1 Build 2)  -->
  <defs>
    <style>
      .st0, .st1, .st2 {
        fill: none;
      }

      .st3 {
        isolation: isolate;
      }
      .st2 {
        stroke: #FED700;
        stroke-miterlimit: 100;
      }

      .st4 {
        fill-rule: evenodd;
      }

      .st2 {
        stroke-width: 4px;
      }
    </style>
  </defs>
  <g id="Line_1" class="st3">
    <g id="Line_11" data-name="Line_1">
      <polygon class="st4" points="98.1 112.6 97.9 112.6 98.1 168.8 98.2 168.8 98.1 112.6" fill="#FED700"/>
      <polygon class="st2" points="98.1 112.6 97.9 112.6 98.1 168.8 98.2 168.8 98.1 112.6" fill="#FED700"/>
    </g>
  </g>
  <g id="Ellipse_1" class="st3">
    <g id="Ellipse_11" data-name="Ellipse_1">
      <path class="st4" d="M97.7,152.5c-1.6,0-2.8,1.2-2.8,2.7s1.3,2.7,2.8,2.7,2.8-1.2,2.8-2.7-1.3-2.7-2.8-2.7Z" fill="#FED700"/>
      <path class="st1" d="M97.7,152.5c-1.6,0-2.8,1.2-2.8,2.7s1.3,2.7,2.8,2.7,2.8-1.2,2.8-2.7-1.3-2.7-2.8-2.7Z" fill="#FED700"/>
    </g>
  </g>
  <g id="Rectangle_1" class="st3">
    <g id="Rectangle_11" data-name="Rectangle_1">
      <path class="st4" d="M97.7,156.4c-3.1,0-5.7,2.5-5.7,5.7v43.5c0,3.1,2.5,5.7,5.7,5.7s5.7-2.5,5.7-5.7v-43.5c0-3.1-2.5-5.7-5.7-5.7Z" fill="#FED700"/>
      <path class="st1" d="M97.7,156.4c-3.1,0-5.7,2.5-5.7,5.7v43.5c0,3.1,2.5,5.7,5.7,5.7s5.7-2.5,5.7-5.7v-43.5c0-3.1-2.5-5.7-5.7-5.7Z" fill="#FED700"/>
    </g>
  </g>
  <g id="urho_x0D_matti_x0D_4.0_x0D_">
    <g>
      <rect class="st0" x="-4.2" y="0" width="106.4" height="135"/>
      <path d="M21.6,30c-1.8,0-3.4-.3-4.8-1-1.4-.7-2.5-1.8-3.2-3.2s-1.2-3.3-1.2-5.4v-12.2h6.2v11.2c0,1.8.4,3.1,1.1,4,.8.8,1.8,1.3,3.2,1.3s1.8-.2,2.6-.6c.7-.4,1.3-1.1,1.8-1.9.4-.9.7-1.9.7-3.2v-10.7h6.2v21.5h-5.9v-6l1.1,1.8c-.7,1.5-1.8,2.6-3.2,3.4-1.4.8-2.9,1.1-4.6,1.1Z" fill="#FED700"/>
      <path d="M38,29.7V8.2h6v6.1l-.8-1.8c.6-1.5,1.7-2.7,3.1-3.5,1.4-.8,3.1-1.2,5.2-1.2v5.8c-.2,0-.5,0-.7-.1-.2,0-.4,0-.7,0-1.8,0-3.2.5-4.2,1.5-1,1-1.6,2.5-1.6,4.6v10.2h-6.2Z" fill="#FED700"/>
      <path d="M66.2,7.9c1.7,0,3.2.3,4.6,1,1.3.7,2.4,1.7,3.2,3.1.8,1.4,1.2,3.2,1.2,5.4v12.3h-6.2v-11.4c0-1.7-.4-3-1.1-3.8-.8-.8-1.8-1.2-3.2-1.2s-1.9.2-2.7.6c-.8.4-1.4,1.1-1.8,1.9-.4.8-.7,1.9-.7,3.3v10.6h-6.2V0h6.2v14.1l-1.4-1.8c.8-1.4,1.9-2.5,3.3-3.3,1.4-.8,3.1-1.2,4.9-1.2Z" fill="#FED700"/>
      <path d="M89.1,30c-2.3,0-4.3-.5-6.1-1.4s-3.2-2.3-4.2-3.9c-1-1.7-1.5-3.6-1.5-5.7s.5-4.1,1.5-5.7c1-1.7,2.4-3,4.2-3.9,1.8-.9,3.8-1.4,6.1-1.4s4.3.5,6.1,1.4c1.8.9,3.2,2.3,4.2,3.9,1,1.7,1.5,3.6,1.5,5.7s-.5,4.1-1.5,5.7c-1,1.7-2.4,3-4.2,3.9-1.8,1-3.8,1.4-6.1,1.4ZM89.1,24.9c1.1,0,2-.2,2.8-.7.8-.5,1.5-1.2,2-2.1.5-.9.7-2,.7-3.2s-.2-2.3-.7-3.2c-.5-.9-1.1-1.6-2-2-.8-.5-1.7-.7-2.8-.7s-2,.2-2.8.7c-.8.5-1.5,1.1-2,2s-.7,1.9-.7,3.2.2,2.3.7,3.2c.5.9,1.2,1.6,2,2.1.8.5,1.7.7,2.8.7Z" fill="#FED700"/>
      <path d="M27.6,55.9c1.7,0,3.2.3,4.5,1,1.3.7,2.4,1.7,3.1,3.1.7,1.4,1.1,3.2,1.1,5.4v12.3h-6.2v-11.4c0-1.7-.4-3-1.1-3.8-.7-.8-1.7-1.2-3-1.2s-1.8.2-2.5.6c-.7.4-1.3,1-1.7,1.8-.4.8-.6,1.9-.6,3.2v10.8h-6.2v-11.4c0-1.7-.4-3-1.1-3.8-.7-.8-1.7-1.2-3.1-1.2s-1.7.2-2.4.6c-.7.4-1.3,1-1.7,1.8-.4.8-.6,1.9-.6,3.2v10.8H0v-21.5h6v5.8l-1.1-1.7c.7-1.5,1.8-2.6,3.2-3.3,1.4-.8,2.9-1.1,4.7-1.1s3.7.5,5.2,1.5c1.5,1,2.5,2.5,3,4.6l-2.2-.6c.7-1.7,1.9-3,3.4-4,1.6-1,3.4-1.5,5.5-1.5Z" fill="#FED700"/>
      <path d="M46.7,78c-1.7,0-3.1-.3-4.3-.9-1.2-.6-2.1-1.4-2.8-2.3-.7-1-1-2.1-1-3.3s.3-2.4.9-3.3c.6-1,1.6-1.7,3-2.3,1.4-.5,3.1-.8,5.4-.8h5.7v3.6h-5c-1.5,0-2.5.2-3,.7-.5.5-.8,1.1-.8,1.8s.3,1.4.9,1.9c.6.5,1.5.7,2.5.7s2-.2,2.9-.7c.8-.5,1.4-1.2,1.8-2.2l1,2.9c-.5,1.3-1.3,2.4-2.5,3.1s-2.7,1.1-4.6,1.1ZM53.2,77.7v-4.2l-.4-.9v-7.5c0-1.3-.4-2.4-1.2-3.1s-2.1-1.1-3.7-1.1-2.3.2-3.4.5c-1.1.4-2.1.8-2.9,1.5l-2.2-4.4c1.2-.9,2.6-1.5,4.2-1.9,1.7-.4,3.3-.7,5-.7,3.3,0,5.8.8,7.6,2.3,1.8,1.5,2.7,4,2.7,7.2v12.3h-5.8Z" fill="#FED700"/>
      <path d="M60.2,61.5v-4.8h14.9v4.8h-14.9ZM71.5,78c-2.5,0-4.5-.6-5.9-1.9-1.4-1.3-2.1-3.2-2.1-5.8v-18.9h6.3v18.8c0,.9.2,1.6.7,2.1.5.5,1.1.8,1.9.8s1.9-.3,2.6-.8l1.6,4.4c-.6.5-1.4.8-2.3,1s-1.8.3-2.8.3Z" fill="#FED700"/>
      <path d="M75.1,61.5v-4.8h14.9v4.8h-14.9ZM86.4,78c-2.5,0-4.5-.6-5.9-1.9-1.4-1.3-2.1-3.2-2.1-5.8v-18.9h6.3v18.8c0,.9.2,1.6.7,2.1.5.5,1.1.8,1.9.8s1.9-.3,2.6-.8l1.6,4.4c-.6.5-1.4.8-2.3,1s-1.8.3-2.8.3Z" fill="#FED700"/>
      <path d="M96.2,53.2c-1.2,0-2.1-.3-2.8-1-.7-.7-1.1-1.5-1.1-2.5s.4-1.8,1.1-2.5c.7-.7,1.7-1,2.8-1s2.1.3,2.8.9c.7.6,1.1,1.4,1.1,2.4s-.4,1.9-1.1,2.6-1.7,1-2.8,1ZM93,77.7v-21.5h6.2v21.5h-6.2Z" fill="#FED700"/>
      <path d="M42,119.8v-4.4l13.2-17.8h6.8l-12.9,17.8-3.2-.9h22v5.3h-26ZM57,125.7v-5.9l.2-5.3v-5.2h6.1v16.4h-6.3Z" fill="#FED700"/>
      <path d="M72.3,126c-1.1,0-2-.4-2.7-1.1-.8-.7-1.1-1.7-1.1-2.8s.4-2.1,1.1-2.8c.8-.7,1.7-1.1,2.7-1.1s2,.4,2.8,1.1c.7.7,1.1,1.7,1.1,2.8s-.4,2-1.1,2.8c-.7.7-1.7,1.1-2.8,1.1Z" fill="#FED700"/>
      <path d="M88.6,126.2c-2.3,0-4.3-.6-6.1-1.7s-3.2-2.8-4.3-4.9-1.6-4.8-1.6-7.9.5-5.7,1.6-7.9c1.1-2.1,2.5-3.8,4.3-4.9s3.8-1.7,6.1-1.7,4.4.6,6.2,1.7,3.2,2.8,4.3,4.9c1.1,2.1,1.6,4.8,1.6,7.9s-.5,5.7-1.6,7.9-2.5,3.8-4.3,4.9-3.9,1.7-6.2,1.7ZM88.6,120.8c1.1,0,2-.3,2.9-.9.8-.6,1.5-1.6,1.9-2.9.5-1.3.7-3.1.7-5.2s-.2-3.8-.7-5.2c-.5-1.3-1.1-2.3-1.9-2.9-.8-.6-1.8-.9-2.9-.9s-2,.3-2.8.9c-.8.6-1.5,1.6-2,2.9-.5,1.3-.7,3.1-.7,5.2s.2,3.8.7,5.2c.5,1.3,1.1,2.3,2,2.9.8.6,1.8.9,2.8.9Z" fill="#FED700"/>
    </g>
  </g>
</svg>